<svg width="40" height="40" viewBox="0 0 40 40" fill="none" xmlns="http://www.w3.org/2000/svg">
<path d="M12.7875 16.6383C14.6441 12.495 17.1125 8.95165 20.2766 8.95165C23.4408 8.95165 26.4316 12.8567 27.1733 14.1667C27.915 15.4767 29.1258 15.1058 28.9283 13.1042C28.7308 11.1025 26.1841 5.73749 20.5241 5.73749C14.8641 5.73749 11.575 10.6575 11.575 15.725C11.575 16.8125 12.325 17.6708 12.7866 16.6392L12.7875 16.6383Z" stroke="#388E3B" stroke-linecap="round" stroke-linejoin="round"/>
<path d="M19.8892 10.905C21.2617 10.905 23.4725 12.0683 23.4725 13.7667C23.4725 15.465 22.4325 15.6983 21.8042 15.6983C19.9433 15.6983 18.1442 14.5117 18.1442 12.79C18.1442 11.44 18.9942 10.905 19.8892 10.905ZM28.3292 18.3808C31.0517 21.78 33.5567 26.2783 31.8167 28.5825C30.1475 30.7933 28.17 31.2225 24.3183 31.7858C23.2675 31.94 22.85 32.9658 24.1633 33.5692C25.7808 34.3108 31.0433 35.1133 33.8767 30.7942C37.3 25.5742 34.0667 22.0942 29.8158 17.3925C28.9717 16.4592 27.525 17.3758 28.3292 18.3808ZM10.0392 18.6967C7.93667 22.48 6.92334 27.4367 9.00834 29.4092C11.0083 31.3017 12.8058 31.9542 17.865 30.7425C19.4492 30.3625 20.2417 31.8408 19.0308 32.7592C17.5767 33.8633 10.5458 35.8208 7.05834 32.0533C2.84334 27.5 4.86 23.0283 8.335 17.8942C9.02667 16.8725 10.6908 17.5233 10.0392 18.6967Z" stroke="#388E3B" stroke-linecap="round" stroke-linejoin="round"/>
<path d="M30.1917 27.8658C29.0825 28.9742 26.3567 29.82 24.9834 28.4483C23.61 27.0767 24.2634 26.0483 24.7717 25.54C26.275 24.0367 28.6875 23.5417 30.0784 24.9325C31.1684 26.0233 30.9159 27.1417 30.1917 27.8658ZM11.5642 23.72C13.0459 23.235 15.8417 23.7092 16.4417 25.5425C17.0417 27.3758 16.0025 27.9942 15.325 28.2158C13.3159 28.8742 10.955 28.2283 10.3467 26.37C9.87003 24.9142 10.5975 24.0367 11.5642 23.72Z" stroke="#388E3B" stroke-linecap="round" stroke-linejoin="round"/>
</svg>
